<svg width="40" height="40" viewBox="0 0 40 40" fill="none" xmlns="http://www.w3.org/2000/svg">
<circle cx="20" cy="20" r="20" fill="#F2F8FB"/>
<path fill-rule="evenodd" clip-rule="evenodd" d="M12.01 28H28.01C29.11 28 30.01 27.1 30.01 26V14C30.01 12.9 29.11 12 28.01 12H12.01C10.91 12 10.01 12.9 10.01 14V26C10.01 27.1 10.91 28 12.01 28ZM12.01 26V14H28.01V26H12.01ZM18.01 18.5C18.01 19.3284 17.3384 20 16.51 20C15.6816 20 15.01 19.3284 15.01 18.5C15.01 17.6716 15.6816 17 16.51 17C17.3384 17 18.01 17.6716 18.01 18.5ZM14.01 23V22.5C14.01 21.4 14.91 21 16.01 21H17.01C18.11 21 19.01 21.4 19.01 22.5V23H14.01ZM21.51 19H25.51C25.78 19 26.01 18.77 26.01 18.5C26.01 18.22 25.79 18 25.51 18H21.51C21.23 18 21.01 18.22 21.01 18.5C21.01 18.78 21.23 19 21.51 19ZM25.51 21H21.51C21.23 21 21.01 20.78 21.01 20.5C21.01 20.22 21.23 20 21.51 20H25.51C25.79 20 26.01 20.22 26.01 20.5C26.01 20.77 25.78 21 25.51 21ZM21.51 23H25.51C25.78 23 26.01 22.77 26.01 22.5C26.01 22.22 25.79 22 25.51 22H21.51C21.23 22 21.01 22.22 21.01 22.5C21.01 22.78 21.23 23 21.51 23Z" fill="#003B71"/>
</svg>
